<svg width="128" height="128" viewBox="0 0 128 128" fill="none" xmlns="http://www.w3.org/2000/svg">
<path d="M0 128H128V0H0V128Z" fill="#0069FF"/>
<path d="M81.1486 72.5872C77.3179 69.2455 75.0122 64.8523 74.723 60.2038L74.6914 59.4177V59.1838C74.6914 59.097 74.7045 58.8367 74.7124 58.6947C74.715 58.6105 74.7203 58.5343 74.723 58.4607C75.0437 55.2978 77.8569 52.8289 81.1671 52.8289C84.7138 52.8289 87.598 55.6212 87.6112 59.0574C87.6112 64.0924 85.2344 68.9905 81.1486 72.5872ZM95.7589 75.3267C94.7651 75.8893 93.6871 76.3311 92.5434 76.6072C91.0396 76.97 89.5383 77.0225 88.0475 76.7596C88.0528 76.7543 88.0554 76.7492 88.0607 76.7439C90.3902 74.3251 92.22 71.5513 93.4742 68.5751C94.7467 65.5674 95.4251 62.3493 95.4277 59.0759C95.4277 56.4993 94.7152 54.0831 93.4742 52.0061C92.8563 50.9702 92.1069 50.0159 91.2472 49.1718C88.6654 46.6346 85.0976 45.0625 81.1671 45.0625C77.5782 45.0625 74.1472 46.3744 71.5049 48.7511C68.8599 51.1279 67.2378 54.3644 66.9274 57.8585L66.9169 58.0479C66.9144 58.1214 66.9091 58.2109 66.9038 58.3083C66.8881 58.5895 66.8722 58.9129 66.8722 59.1838V59.281L66.9248 60.7797C67.314 66.7111 69.9089 72.2981 74.226 76.7519C71.2394 77.9245 67.9844 78.5344 64.6007 78.5476C61.217 78.5344 57.962 77.9245 54.9752 76.7519L54.9885 76.7386C54.9412 76.7176 54.8938 76.6993 54.8491 76.6782C51.8045 75.3057 49.6223 73.9045 48.0553 72.5844L48.0527 72.5872C48.029 72.5661 48.0054 72.5477 47.9844 72.5267C47.1719 71.8063 46.4304 71.0333 45.7601 70.2183C45.7601 70.2157 45.7601 70.2157 45.7575 70.2157C43.0914 66.974 41.5902 63.059 41.5902 59.0574C41.6033 55.6212 44.4902 52.8289 48.0369 52.8289C51.3445 52.8289 54.1603 55.2978 54.4784 58.4607C54.481 58.5343 54.4862 58.6105 54.489 58.6947C54.4968 58.8367 54.51 59.097 54.51 59.1838V59.4177L54.4784 60.2038C54.2076 64.5366 52.1884 68.6487 48.8126 71.893C51.0315 72.8711 54.1287 73.8755 56.9315 74.5038C60.0732 70.4812 61.9504 65.7513 62.2766 60.7797L62.3292 59.281V59.1838C62.3292 58.9129 62.3133 58.5895 62.2976 58.3083C62.2923 58.2109 62.287 58.1214 62.2844 58.0479L62.2738 57.8585C61.9662 54.3644 60.3414 51.1279 57.6992 48.7511C55.0541 46.3744 51.6231 45.0625 48.0369 45.0625C44.1037 45.0625 40.5359 46.6346 37.954 49.1718C37.0943 50.0159 36.3477 50.9702 35.7271 52.0061C34.4861 54.0831 33.7737 56.4993 33.7737 59.0759C33.7763 62.3493 34.4547 65.5674 35.7271 68.5751C36.9813 71.5513 38.8111 74.3251 41.1405 76.7439C41.1458 76.7492 41.1485 76.7543 41.1537 76.7596C39.6629 77.0225 38.1643 76.97 36.6606 76.6072C35.3591 76.2944 34.1391 75.7632 33.0375 75.0901L28 81.111C29.9824 82.4624 32.2672 83.5403 34.8122 84.1582C36.1241 84.471 37.6386 84.6946 39.3055 84.6946C42.0477 84.6946 45.1975 84.0925 48.5285 82.3177C53.3163 84.9048 58.7692 86.2746 64.4797 86.3116V86.314H64.7216V86.3116C70.4322 86.2746 75.885 84.9048 80.6728 82.3177C84.0093 84.0925 87.1588 84.6946 89.8984 84.6946C91.5654 84.6946 93.0798 84.471 94.3917 84.1582C96.7711 83.5797 98.9271 82.5991 100.817 81.3687L95.7589 75.3267Z" fill="white"/>
</svg>
